<mxfile host="app.diagrams.net" modified="2024-08-27T13:48:19.799Z" agent="Mozilla/5.0 (Macintosh; Intel Mac OS X 10.15; rv:129.0) Gecko/20100101 Firefox/129.0" version="24.6.4" etag="LmXnTgVS4rY9K-pCWKJz" type="github">
  <diagram name="Page-1" id="UCWsZtnA9lqYx4ywq8I0">
    <mxGraphModel>
      <root>
        <mxCell id="0" />
        <mxCell id="1" parent="0" />
      </root>
    </mxGraphModel>
  </diagram>
</mxfile>
